<?xml version="1.0" encoding="UTF-8"?>
<svg version="1.1" xmlns="http://www.w3.org/2000/svg" width="500" height="500">
<path d="M0 0 C165 0 330 0 500 0 C500 165 500 330 500 500 C335 500 170 500 0 500 C0 335 0 170 0 0 Z " fill="#050816" transform="translate(0,0)"/>
<path d="M0 0 C1.20970459 0.00523682 2.41940918 0.01047363 3.66577148 0.01586914 C4.97094727 0.0190918 6.27612305 0.02231445 7.62084961 0.02563477 C9.00952213 0.03399138 10.39819401 0.04245634 11.78686523 0.05102539 C13.17944179 0.05603873 14.57202005 0.06060193 15.96459961 0.06469727 C19.38456394 0.07653105 22.80444367 0.09301659 26.22436523 0.11352539 C35.08517759 20.2682356 43.93601214 40.42709691 52.72436523 60.61352539 C58.51569063 73.91452783 64.32771881 87.20624741 70.16186523 100.48852539 C70.53455536 101.33703064 70.90724548 102.18553589 71.29122925 103.05975342 C73.93486019 109.07800605 76.57949663 115.0958166 79.22436523 121.11352539 C82.24589173 127.98822098 85.26696869 134.86311362 88.28686523 141.73852539 C88.65963593 142.58719177 89.03240662 143.43585815 89.41647339 144.3102417 C95.56856257 158.31884887 101.69272543 172.33948183 107.79272461 186.37084961 C111.59660482 195.11569592 115.42835872 203.84748606 119.29077148 212.56665039 C120.5475037 215.40891893 121.80391806 218.25132782 123.06030273 221.09375 C123.87321924 222.92944622 124.68813765 224.76425732 125.50512695 226.59814453 C126.63642588 229.13761906 127.76110493 231.67993125 128.88452148 234.22290039 C129.22423477 234.98032532 129.56394806 235.73775024 129.91395569 236.51812744 C132.22436523 241.77233623 132.22436523 241.77233623 132.22436523 245.11352539 C136.89809454 245.0433516 141.57103569 244.95481573 146.24414062 244.85107422 C147.82542983 244.81834027 149.40682151 244.79015868 150.98828125 244.76708984 C182.62677614 244.29367079 212.66732971 235.64777492 235.171875 212.56469727 C254.76809869 191.74516 262.64574353 165.14278514 262.47436523 137.05102539 C262.48209961 135.77936523 262.48983398 134.50770508 262.49780273 133.19750977 C262.48159755 125.3015349 261.80713002 117.84715109 260.22436523 110.11352539 C260.02262695 109.11434082 259.82088867 108.11515625 259.61303711 107.08569336 C254.67227807 83.74270042 239.56187577 60.8675393 219.68139648 47.69946289 C195.87824835 32.63555959 171.81970708 28.84928283 144.20092773 28.69946289 C142.00132549 28.68071808 139.80173018 28.6611423 137.60214233 28.64077759 C131.85827761 28.58980008 126.11438966 28.54999195 120.37042236 28.51263428 C114.4909507 28.47237719 108.61157277 28.42138469 102.73217773 28.37133789 C91.22963974 28.27498654 79.7270484 28.19045328 68.22436523 28.11352539 C66.51302702 24.28766801 64.80409236 20.46074924 63.09741211 16.6328125 C62.51604697 15.32978073 61.93401709 14.02704533 61.35131836 12.72460938 C60.51559792 10.85631937 59.68224605 8.98698895 58.84936523 7.11743164 C58.34663086 5.99151611 57.84389648 4.86560059 57.32592773 3.70556641 C56.22436523 1.11352539 56.22436523 1.11352539 56.22436523 0.11352539 C71.23746341 0.06662012 86.25055587 0.03144636 101.26371193 0.00990105 C108.23597298 -0.00037266 115.20818826 -0.01435744 122.18041992 -0.03735352 C128.91721597 -0.05956231 135.65395482 -0.07106559 142.39078903 -0.0762291 C144.95260742 -0.07990582 147.51442341 -0.08708522 150.07622147 -0.09793472 C166.16654203 -0.16332852 181.47205198 -0.09006398 196.97436523 4.73852539 C197.81580078 4.99794922 198.65723633 5.25737305 199.52416992 5.5246582 C220.23097544 12.12694052 238.19708483 22.47426386 254.22436523 37.11352539 C255.02229492 37.82895508 255.82022461 38.54438477 256.64233398 39.28149414 C278.56953011 59.96679597 293.07398169 92.28057902 294.36474609 122.38793945 C295.33740149 159.47982557 288.94955645 195.95151357 264.22436523 225.11352539 C263.56380127 225.89735596 263.56380127 225.89735596 262.88989258 226.69702148 C240.85116456 252.55324048 208.88849019 268.98243515 175.22436523 273.11352539 C165.10586401 273.79004199 154.96884715 273.62116674 144.83557129 273.45684814 C141.25438883 273.40456433 137.67301134 273.38262793 134.09155273 273.35766602 C127.13537083 273.30494626 120.17992359 273.22027553 113.22436523 273.11352539 C107.40830526 260.94277176 102.07459344 248.58374082 96.78686523 236.17602539 C95.86761866 234.02429938 94.94809668 231.87269101 94.02832031 229.72119141 C92.08584459 225.176935 90.14449249 220.63220095 88.20385742 216.0871582 C83.78234744 205.73482234 79.34516738 195.38920275 74.90911865 185.04309082 C72.38355906 179.15269229 69.8585568 173.26205493 67.33374023 167.37133789 C66.57732742 165.60657104 66.57732742 165.60657104 65.80563354 163.80615234 C62.76318702 156.70696871 59.72328231 149.60670271 56.6854248 142.5055542 C43.6993506 112.15022466 30.63304966 81.83166708 17.45831299 51.55776978 C15.36621612 46.7489556 13.28458136 41.93608853 11.22436523 37.11352539 C4.77066679 50.49028217 -1.03620186 64.15350528 -6.91186523 77.7902832 C-9.85263217 84.61426333 -12.80456802 91.43341763 -15.75476074 98.25332642 C-16.77855627 100.62027972 -17.80205011 102.98736324 -18.82543945 105.35449219 C-23.03382381 115.08848356 -27.24591762 124.82085754 -31.46313477 134.55102539 C-31.85884171 135.46402908 -31.85884171 135.46402908 -32.26254272 136.39547729 C-34.62109157 141.83710834 -36.98012245 147.2785304 -39.33911133 152.7199707 C-46.43577746 169.09043825 -53.52563067 185.46383249 -60.60498047 201.84179688 C-61.28295268 203.41024036 -61.96093122 204.9786811 -62.63891602 206.54711914 C-62.97667557 207.3284874 -63.31443512 208.10985565 -63.66242981 208.91490173 C-65.77106181 213.79219319 -67.88187663 218.66853396 -69.99432373 223.54417419 C-71.75533749 227.60870821 -73.51554156 231.67359267 -75.27563477 235.73852539 C-75.61326843 236.51805573 -75.9509021 237.29758606 -76.29876709 238.10073853 C-80.48097627 247.75951724 -84.64442309 257.42475273 -88.65844727 267.1550293 C-90.67325785 272.01114848 -90.67325785 272.01114848 -91.77563477 273.11352539 C-93.99418741 273.20136081 -96.21551973 273.22047148 -98.43579102 273.21118164 C-99.43249062 273.20905922 -99.43249062 273.20905922 -100.44932556 273.20689392 C-102.57897376 273.20128057 -104.70851816 273.18872593 -106.83813477 273.17602539 C-108.27888846 273.1710121 -109.7196438 273.1664489 -111.16040039 273.16235352 C-114.69884579 273.15130684 -118.23723015 273.13403331 -121.77563477 273.11352539 C-119.92981383 267.31430533 -117.85810569 261.70924268 -115.39672852 256.14477539 C-115.07290192 255.40405792 -114.74907532 254.66334045 -114.41543579 253.900177 C-113.3517414 251.46963485 -112.28248031 249.04158589 -111.21313477 246.61352539 C-110.45359811 244.88109008 -109.69440927 243.14850225 -108.93554688 241.41577148 C-106.94837636 236.88098038 -104.95650389 232.34827031 -102.96350098 227.81604004 C-101.06744597 223.50232492 -99.17559731 219.18676691 -97.28344727 214.87133789 C-92.40814888 203.7551162 -87.52430749 192.64265259 -82.64025879 181.53027344 C-79.9972486 175.51663652 -77.35477679 169.50276344 -74.71313477 163.48852539 C-74.34036407 162.63985901 -73.96759338 161.79119263 -73.58352661 160.91680908 C-68.12673207 148.49142173 -62.69335925 136.05599303 -57.27563477 123.61352539 C-51.48412069 110.31260417 -45.67217006 97.02085332 -39.83813477 83.73852539 C-39.46810333 82.8960022 -39.0980719 82.053479 -38.71682739 81.1854248 C-34.86860617 72.42404338 -31.01777926 63.6638091 -27.16537476 54.90426636 C-25.18064942 50.39096961 -23.19683589 45.87727237 -21.21313477 41.36352539 C-20.83312317 40.49914856 -20.45311157 39.63477173 -20.06158447 38.74420166 C-15.36067233 28.04901143 -10.67881925 17.34740154 -6.14648438 6.5793457 C-3.422743 0.13999257 -3.422743 0.13999257 0 0 Z " fill="#8F5DFD" transform="translate(163.775634765625,98.886474609375)"/>
<path d="M0 0 C11.60582667 -0.06985895 23.21160238 -0.12299219 34.81759739 -0.15543652 C40.20814565 -0.17101703 45.59854886 -0.19211438 50.98901367 -0.22631836 C56.2021163 -0.25918565 61.41508039 -0.27691009 66.62827873 -0.28463173 C68.60594802 -0.29012654 70.58361071 -0.30085477 72.56122017 -0.31719017 C99.50733622 -0.53068816 123.45877973 5.57842061 143.6015625 24.3828125 C148.29222781 29.50129094 152.14779475 35.23808449 156 41 C155.01 41.495 155.01 41.495 154 42 C151.23720885 40.98994732 148.56988684 39.91870093 145.875 38.75 C144.39376758 38.11852723 142.91199795 37.48831306 141.4296875 36.859375 C140.77210449 36.57545898 140.11452148 36.29154297 139.43701172 35.99902344 C122.50660151 29.05860683 105.70907788 28.54152719 87.5859375 28.48828125 C85.3920494 28.47139172 83.19817073 28.45323592 81.00430298 28.43388367 C75.29336495 28.3868411 69.58246512 28.3567381 63.87139893 28.33044434 C58.01835587 28.30040515 52.16544399 28.25395652 46.3125 28.20898438 C34.87506928 28.1234732 23.43761117 28.05589879 12 28 C10.89227253 25.80840788 9.7872172 23.61553287 8.68359375 21.421875 C8.21971252 20.50510986 8.21971252 20.50510986 7.74645996 19.56982422 C0 4.14820636 0 4.14820636 0 0 Z " fill="#905DFD" transform="translate(241,146)"/>
<path d="M0 0 C2.52357622 2.52357622 3.65919769 5.36471886 5.07421875 8.58203125 C5.36230911 9.23322433 5.65039948 9.88441742 5.94721985 10.55534363 C6.55414083 11.93359632 7.15833772 13.31305134 7.76000977 14.69360352 C8.68192248 16.79975789 9.62278655 18.89675876 10.56445312 20.99414062 C11.1522343 22.33541549 11.73886122 23.67719689 12.32421875 25.01953125 C12.60746506 25.64366409 12.89071136 26.26779694 13.18254089 26.9108429 C15.57743851 32.51195179 14.71499436 35.15420853 12.57641602 40.67504883 C11.97370006 42.10440442 11.36587894 43.53161435 10.75390625 44.95703125 C10.42684692 45.72946167 10.0997876 46.50189209 9.76281738 47.29772949 C8.70037687 49.80451718 7.63150546 52.30850577 6.5625 54.8125 C5.46721458 57.39127443 4.37342057 59.97067828 3.27964783 62.5500946 C2.55208424 64.26543695 1.82394576 65.98053556 1.0952301 67.69538879 C-1.04136175 72.72564649 -3.15996351 77.76272245 -5.25 82.8125 C-5.94331421 84.48735474 -5.94331421 84.48735474 -6.65063477 86.19604492 C-7.49132563 88.23198097 -8.33042563 90.26857486 -9.16772461 92.3059082 C-9.53389893 93.19109131 -9.90007324 94.07627441 -10.27734375 94.98828125 C-10.58921631 95.74665283 -10.90108887 96.50502441 -11.22241211 97.28637695 C-12 99 -12 99 -13 100 C-15.21855264 100.08783542 -17.43988496 100.10694609 -19.66015625 100.09765625 C-20.65685585 100.09553383 -20.65685585 100.09553383 -21.6736908 100.09336853 C-23.80333899 100.08775518 -25.93288339 100.07520054 -28.0625 100.0625 C-29.50325369 100.05748671 -30.94400903 100.05292351 -32.38476562 100.04882812 C-35.92321102 100.03778145 -39.46159539 100.02050792 -43 100 C-41.07512902 93.89874128 -38.83274982 88.04732401 -36.2265625 82.20703125 C-35.68634209 80.98268875 -35.68634209 80.98268875 -35.13520813 79.73361206 C-33.9687242 77.09163978 -32.79683953 74.45210055 -31.625 71.8125 C-30.40158841 69.04478148 -29.17966789 66.27640818 -27.95793152 63.50794983 C-27.13984533 61.65419538 -26.32133355 59.8006287 -25.50239563 57.94725037 C-21.93912258 49.87849503 -18.43040634 41.78690173 -14.9375 33.6875 C-10.06707248 22.40817581 -5.09086764 11.18149224 0 0 Z " fill="#8F5DFC" transform="translate(138,272)"/>
</svg>
